G04*
G04 #@! TF.GenerationSoftware,Altium Limited,Altium Designer,24.9.1 (31)*
G04*
G04 Layer_Physical_Order=1*
G04 Layer_Color=255*
%FSLAX44Y44*%
%MOMM*%
G71*
G04*
G04 #@! TF.SameCoordinates,E7AE62CA-8950-4BCA-878F-0C831DF22038*
G04*
G04*
G04 #@! TF.FilePolarity,Positive*
G04*
G01*
G75*
%ADD12C,0.2000*%
%ADD17R,1.6500X0.6500*%
G04:AMPARAMS|DCode=18|XSize=0.64mm|YSize=0.6mm|CornerRadius=0mm|HoleSize=0mm|Usage=FLASHONLY|Rotation=225.000|XOffset=0mm|YOffset=0mm|HoleType=Round|Shape=Rectangle|*
%AMROTATEDRECTD18*
4,1,4,0.0141,0.4384,0.4384,0.0141,-0.0141,-0.4384,-0.4384,-0.0141,0.0141,0.4384,0.0*
%
%ADD18ROTATEDRECTD18*%

G04:AMPARAMS|DCode=19|XSize=0.6mm|YSize=0.75mm|CornerRadius=0mm|HoleSize=0mm|Usage=FLASHONLY|Rotation=315.000|XOffset=0mm|YOffset=0mm|HoleType=Round|Shape=Rectangle|*
%AMROTATEDRECTD19*
4,1,4,-0.4773,-0.0530,0.0530,0.4773,0.4773,0.0530,-0.0530,-0.4773,-0.4773,-0.0530,0.0*
%
%ADD19ROTATEDRECTD19*%

%ADD20R,0.7000X0.3000*%
%ADD21R,0.7000X1.0000*%
%ADD22R,0.6000X0.6400*%
%ADD23R,0.7500X0.6000*%
%ADD24R,0.8000X0.8000*%
G04:AMPARAMS|DCode=25|XSize=0.64mm|YSize=0.6mm|CornerRadius=0mm|HoleSize=0mm|Usage=FLASHONLY|Rotation=135.000|XOffset=0mm|YOffset=0mm|HoleType=Round|Shape=Rectangle|*
%AMROTATEDRECTD25*
4,1,4,0.4384,-0.0141,0.0141,-0.4384,-0.4384,0.0141,-0.0141,0.4384,0.4384,-0.0141,0.0*
%
%ADD25ROTATEDRECTD25*%

G04:AMPARAMS|DCode=26|XSize=0.6mm|YSize=0.5mm|CornerRadius=0mm|HoleSize=0mm|Usage=FLASHONLY|Rotation=45.000|XOffset=0mm|YOffset=0mm|HoleType=Round|Shape=Rectangle|*
%AMROTATEDRECTD26*
4,1,4,-0.0354,-0.3889,-0.3889,-0.0354,0.0354,0.3889,0.3889,0.0354,-0.0354,-0.3889,0.0*
%
%ADD26ROTATEDRECTD26*%

%ADD27R,1.3000X1.4000*%
G04:AMPARAMS|DCode=28|XSize=1.2mm|YSize=1.4mm|CornerRadius=0mm|HoleSize=0mm|Usage=FLASHONLY|Rotation=135.000|XOffset=0mm|YOffset=0mm|HoleType=Round|Shape=Rectangle|*
%AMROTATEDRECTD28*
4,1,4,0.9192,0.0707,-0.0707,-0.9192,-0.9192,-0.0707,0.0707,0.9192,0.9192,0.0707,0.0*
%
%ADD28ROTATEDRECTD28*%

G04:AMPARAMS|DCode=29|XSize=0.1925mm|YSize=0.9182mm|CornerRadius=0.0962mm|HoleSize=0mm|Usage=FLASHONLY|Rotation=225.000|XOffset=0mm|YOffset=0mm|HoleType=Round|Shape=RoundedRectangle|*
%AMROUNDEDRECTD29*
21,1,0.1925,0.7257,0,0,225.0*
21,1,0.0000,0.9182,0,0,225.0*
1,1,0.1925,-0.2566,0.2566*
1,1,0.1925,-0.2566,0.2566*
1,1,0.1925,0.2566,-0.2566*
1,1,0.1925,0.2566,-0.2566*
%
%ADD29ROUNDEDRECTD29*%
G04:AMPARAMS|DCode=30|XSize=0.9182mm|YSize=0.1925mm|CornerRadius=0.0962mm|HoleSize=0mm|Usage=FLASHONLY|Rotation=225.000|XOffset=0mm|YOffset=0mm|HoleType=Round|Shape=RoundedRectangle|*
%AMROUNDEDRECTD30*
21,1,0.9182,0.0000,0,0,225.0*
21,1,0.7257,0.1925,0,0,225.0*
1,1,0.1925,-0.2566,-0.2566*
1,1,0.1925,0.2566,0.2566*
1,1,0.1925,0.2566,0.2566*
1,1,0.1925,-0.2566,-0.2566*
%
%ADD30ROUNDEDRECTD30*%
G04:AMPARAMS|DCode=31|XSize=0.9182mm|YSize=0.1925mm|CornerRadius=0mm|HoleSize=0mm|Usage=FLASHONLY|Rotation=225.000|XOffset=0mm|YOffset=0mm|HoleType=Round|Shape=Rectangle|*
%AMROTATEDRECTD31*
4,1,4,0.2566,0.3927,0.3927,0.2566,-0.2566,-0.3927,-0.3927,-0.2566,0.2566,0.3927,0.0*
%
%ADD31ROTATEDRECTD31*%

%ADD32R,1.6000X1.4000*%
G04:AMPARAMS|DCode=33|XSize=1.31mm|YSize=3.24mm|CornerRadius=0.0983mm|HoleSize=0mm|Usage=FLASHONLY|Rotation=180.000|XOffset=0mm|YOffset=0mm|HoleType=Round|Shape=RoundedRectangle|*
%AMROUNDEDRECTD33*
21,1,1.3100,3.0435,0,0,180.0*
21,1,1.1135,3.2400,0,0,180.0*
1,1,0.1965,-0.5568,1.5218*
1,1,0.1965,0.5568,1.5218*
1,1,0.1965,0.5568,-1.5218*
1,1,0.1965,-0.5568,-1.5218*
%
%ADD33ROUNDEDRECTD33*%
G04:AMPARAMS|DCode=34|XSize=1.31mm|YSize=0.93mm|CornerRadius=0.0698mm|HoleSize=0mm|Usage=FLASHONLY|Rotation=180.000|XOffset=0mm|YOffset=0mm|HoleType=Round|Shape=RoundedRectangle|*
%AMROUNDEDRECTD34*
21,1,1.3100,0.7905,0,0,180.0*
21,1,1.1705,0.9300,0,0,180.0*
1,1,0.1395,-0.5853,0.3953*
1,1,0.1395,0.5853,0.3953*
1,1,0.1395,0.5853,-0.3953*
1,1,0.1395,-0.5853,-0.3953*
%
%ADD34ROUNDEDRECTD34*%
%ADD35R,0.6400X0.6000*%
G04:AMPARAMS|DCode=36|XSize=1.21mm|YSize=0.59mm|CornerRadius=0.0738mm|HoleSize=0mm|Usage=FLASHONLY|Rotation=0.000|XOffset=0mm|YOffset=0mm|HoleType=Round|Shape=RoundedRectangle|*
%AMROUNDEDRECTD36*
21,1,1.2100,0.4425,0,0,0.0*
21,1,1.0625,0.5900,0,0,0.0*
1,1,0.1475,0.5313,-0.2213*
1,1,0.1475,-0.5313,-0.2213*
1,1,0.1475,-0.5313,0.2213*
1,1,0.1475,0.5313,0.2213*
%
%ADD36ROUNDEDRECTD36*%
%ADD37R,0.5000X0.6000*%
G04:AMPARAMS|DCode=38|XSize=0.35mm|YSize=0.65mm|CornerRadius=0mm|HoleSize=0mm|Usage=FLASHONLY|Rotation=135.000|XOffset=0mm|YOffset=0mm|HoleType=Round|Shape=Rectangle|*
%AMROTATEDRECTD38*
4,1,4,0.3536,0.1061,-0.1061,-0.3536,-0.3536,-0.1061,0.1061,0.3536,0.3536,0.1061,0.0*
%
%ADD38ROTATEDRECTD38*%

%ADD51P,5.7276X4X270.0*%
%ADD66C,0.2634*%
%ADD67C,0.3000*%
%ADD68C,0.2647*%
%ADD69C,1.5240*%
%ADD70C,2.3040*%
%ADD71C,2.3020*%
%ADD72O,2.6000X1.1000*%
%ADD73O,2.1000X1.1000*%
%ADD74C,0.4500*%
%ADD75C,0.7500*%
G36*
X750000Y120000D02*
X469000D01*
X388434Y200566D01*
X392467Y204599D01*
X392534Y204699D01*
X395930Y207487D01*
X399911Y209614D01*
X404229Y210924D01*
X408602Y211355D01*
X408720Y211332D01*
X451624D01*
X451742Y211355D01*
X456115Y210924D01*
X460433Y209614D01*
X464413Y207487D01*
X467810Y204699D01*
X467877Y204599D01*
X501749Y170727D01*
X501724Y170702D01*
X505107Y167811D01*
X508902Y165486D01*
X513013Y163783D01*
X517340Y162745D01*
X521776Y162395D01*
Y162432D01*
X697737D01*
X698318Y160261D01*
X699969Y157403D01*
X702303Y155069D01*
X705161Y153418D01*
X708350Y152564D01*
X711650D01*
X714839Y153418D01*
X717697Y155069D01*
X720031Y157403D01*
X721682Y160261D01*
X722536Y163450D01*
Y166750D01*
X721682Y169939D01*
X720031Y172797D01*
X717697Y175131D01*
X714839Y176782D01*
X711650Y177636D01*
X708350D01*
X705161Y176782D01*
X702303Y175131D01*
X699969Y172797D01*
X698318Y169939D01*
X697737Y167768D01*
X521776D01*
X521658Y167745D01*
X517285Y168176D01*
X512967Y169486D01*
X508987Y171613D01*
X505590Y174401D01*
X505523Y174501D01*
X471651Y208373D01*
X471676Y208398D01*
X468293Y211289D01*
X464498Y213614D01*
X460387Y215317D01*
X456060Y216355D01*
X451624Y216705D01*
Y216668D01*
X408720D01*
Y216705D01*
X404284Y216355D01*
X399957Y215317D01*
X395846Y213614D01*
X392051Y211289D01*
X388668Y208398D01*
X388693Y208373D01*
X384660Y204340D01*
X371750Y217250D01*
X400500Y246000D01*
X750000D01*
Y120000D01*
D02*
G37*
%LPC*%
G36*
X737050Y203036D02*
X735908D01*
Y191008D01*
X747936D01*
Y192150D01*
X747082Y195339D01*
X745431Y198197D01*
X743097Y200531D01*
X740239Y202182D01*
X737050Y203036D01*
D02*
G37*
G36*
X686250D02*
X685108D01*
Y191008D01*
X697136D01*
Y192150D01*
X696282Y195339D01*
X694631Y198197D01*
X692297Y200531D01*
X689439Y202182D01*
X686250Y203036D01*
D02*
G37*
G36*
X684092D02*
X682950D01*
X679761Y202182D01*
X676903Y200531D01*
X674569Y198197D01*
X672918Y195339D01*
X672064Y192150D01*
Y191008D01*
X684092D01*
Y203036D01*
D02*
G37*
G36*
X734892D02*
X733750D01*
X730561Y202182D01*
X727703Y200531D01*
X725369Y198197D01*
X723718Y195339D01*
X722864Y192150D01*
Y191008D01*
X734892D01*
Y203036D01*
D02*
G37*
G36*
X747936Y189992D02*
X735908D01*
Y177964D01*
X737050D01*
X740239Y178818D01*
X743097Y180469D01*
X745431Y182803D01*
X747082Y185661D01*
X747936Y188850D01*
Y189992D01*
D02*
G37*
G36*
X734892D02*
X722864D01*
Y188850D01*
X723718Y185661D01*
X725369Y182803D01*
X727703Y180469D01*
X730561Y178818D01*
X733750Y177964D01*
X734892D01*
Y189992D01*
D02*
G37*
G36*
X697136D02*
X685108D01*
Y177964D01*
X686250D01*
X689439Y178818D01*
X692297Y180469D01*
X694631Y182803D01*
X696282Y185661D01*
X697136Y188850D01*
Y189992D01*
D02*
G37*
G36*
X684092D02*
X672064D01*
Y188850D01*
X672918Y185661D01*
X674569Y182803D01*
X676903Y180469D01*
X679761Y178818D01*
X682950Y177964D01*
X684092D01*
Y189992D01*
D02*
G37*
G36*
X737049Y152226D02*
X735908D01*
Y140208D01*
X747926D01*
Y141349D01*
X747072Y144535D01*
X745423Y147391D01*
X743091Y149723D01*
X740235Y151372D01*
X737049Y152226D01*
D02*
G37*
G36*
X686249D02*
X685108D01*
Y140208D01*
X697126D01*
Y141349D01*
X696272Y144535D01*
X694623Y147391D01*
X692291Y149723D01*
X689435Y151372D01*
X686249Y152226D01*
D02*
G37*
G36*
X684092D02*
X682951D01*
X679765Y151372D01*
X676909Y149723D01*
X674577Y147391D01*
X672928Y144535D01*
X672074Y141349D01*
Y140208D01*
X684092D01*
Y152226D01*
D02*
G37*
G36*
X734892D02*
X733751D01*
X730565Y151372D01*
X727709Y149723D01*
X725377Y147391D01*
X723728Y144535D01*
X722874Y141349D01*
Y140208D01*
X734892D01*
Y152226D01*
D02*
G37*
G36*
X747926Y139192D02*
X735908D01*
Y127174D01*
X737049D01*
X740235Y128028D01*
X743091Y129677D01*
X745423Y132009D01*
X747072Y134865D01*
X747926Y138051D01*
Y139192D01*
D02*
G37*
G36*
X734892D02*
X722874D01*
Y138051D01*
X723728Y134865D01*
X725377Y132009D01*
X727709Y129677D01*
X730565Y128028D01*
X733751Y127174D01*
X734892D01*
Y139192D01*
D02*
G37*
G36*
X697126D02*
X685108D01*
Y127174D01*
X686249D01*
X689435Y128028D01*
X692291Y129677D01*
X694623Y132009D01*
X696272Y134865D01*
X697126Y138051D01*
Y139192D01*
D02*
G37*
G36*
X684092D02*
X672074D01*
Y138051D01*
X672928Y134865D01*
X674577Y132009D01*
X676909Y129677D01*
X679765Y128028D01*
X682951Y127174D01*
X684092D01*
Y139192D01*
D02*
G37*
%LPD*%
D12*
X150500Y15000D02*
X177100D01*
X143750Y21750D02*
Y66000D01*
Y21750D02*
X150500Y15000D01*
X172250Y105500D02*
X194250Y127500D01*
Y156500D01*
X217750Y180000D01*
X238987D01*
X244856Y174131D01*
X255750Y155700D02*
Y155750D01*
X250513Y150412D02*
Y150463D01*
X255750Y155700D01*
X219000Y102500D02*
Y124556D01*
X247685Y153241D01*
X214600Y125813D02*
X244856Y156069D01*
X214600Y106272D02*
Y125813D01*
X227250Y92500D02*
Y115835D01*
X223000Y96250D02*
Y117242D01*
X227250Y115835D02*
X256170Y144755D01*
X223000Y117242D02*
X253342Y147584D01*
X253300Y15000D02*
Y119258D01*
X267484Y133442D01*
X240000Y59500D02*
Y111615D01*
X264655Y136270D01*
X227900Y47400D02*
X240000Y59500D01*
X202500Y33000D02*
X236000Y66500D01*
Y113272D02*
X261827Y139099D01*
X236000Y66500D02*
Y113272D01*
X227900Y15000D02*
Y47400D01*
X202500Y15000D02*
Y33000D01*
X258000Y51750D02*
Y118301D01*
X270312Y130613D01*
X215000Y98500D02*
X219000Y102500D01*
X219150Y92400D02*
X223000Y96250D01*
X221000Y86250D02*
X227250Y92500D01*
X118750Y86250D02*
X221000D01*
X202250Y79700D02*
X227450D01*
X232000Y84250D02*
Y114928D01*
X227450Y79700D02*
X232000Y84250D01*
Y114928D02*
X258999Y141927D01*
X115600Y89400D02*
Y103928D01*
X116772Y105100D01*
X130250D01*
X115600Y89400D02*
X118750Y86250D01*
X117500Y117500D02*
X117800Y117800D01*
X130250D01*
X149900Y92400D02*
X156000Y98500D01*
X130250Y92400D02*
X149900D01*
X156000Y98500D02*
X215000D01*
X213428Y105100D02*
X214600Y106272D01*
X202250Y105100D02*
X213428D01*
X202250Y92400D02*
X219150D01*
X237827Y154750D02*
X241975Y158898D01*
X242028D01*
X233518Y154750D02*
X237827D01*
X229657Y150889D02*
X233518Y154750D01*
X227111Y150889D02*
X229657D01*
X444500Y52000D02*
X485000D01*
X507300Y15000D02*
Y29700D01*
X485000Y52000D02*
X507300Y29700D01*
X382750Y113750D02*
X444500Y52000D01*
X90000Y190000D02*
X95000D01*
X88750Y188750D02*
X90000Y190000D01*
X88750Y177750D02*
Y188750D01*
X86600Y175600D02*
X88750Y177750D01*
X82050Y175600D02*
X86600D01*
X81550Y175100D02*
X82050Y175600D01*
X88750Y140000D02*
X95000D01*
X60000Y157600D02*
X68550D01*
X321250Y104500D02*
X331500Y94250D01*
X338250Y95000D02*
X339000Y95750D01*
X331500Y94250D02*
X332250Y95000D01*
X338250D01*
X321250Y104500D02*
Y106750D01*
X325139Y110639D01*
Y110861D01*
X316750Y113250D02*
X320750Y117250D01*
X316750Y110250D02*
Y113250D01*
X320750Y117250D02*
Y123500D01*
X343228Y85228D02*
X356434Y98434D01*
X311001Y141927D02*
X321178Y131750D01*
X372271Y113750D02*
X382750D01*
X365087Y106566D02*
X372271Y113750D01*
X270050Y194246D02*
X273545Y190750D01*
X273750D01*
X261827Y191101D02*
X267928Y185000D01*
X316000Y176301D02*
X319487Y179788D01*
X316000Y169500D02*
Y176301D01*
X319487Y179788D02*
Y179788D01*
X310585Y148000D02*
X313830Y144755D01*
X310500Y153795D02*
X316658Y147637D01*
X305000Y148000D02*
X310585D01*
X290500Y134197D02*
Y134750D01*
X299000Y142500D02*
X299062D01*
X296859Y127785D02*
Y127838D01*
X316658Y147584D02*
Y147637D01*
X290500Y134197D02*
X296859Y127838D01*
X313830Y144755D02*
X313830D01*
X299062Y142500D02*
X305291Y136270D01*
X310500Y153795D02*
Y154000D01*
X295500Y51000D02*
Y117777D01*
Y51000D02*
X301250Y45250D01*
X291202Y122075D02*
X295500Y117777D01*
X300750Y118000D02*
Y118237D01*
X294031Y124957D02*
X300750Y118237D01*
X363500Y45250D02*
X380300Y28450D01*
X301250Y45250D02*
X363500D01*
X291250Y41500D02*
X339250D01*
X273000Y59750D02*
X291250Y41500D01*
X339250D02*
X354900Y25850D01*
X268000Y57500D02*
X287500Y38000D01*
X318000D02*
X329500Y26500D01*
X287500Y38000D02*
X318000D01*
X380300Y15000D02*
Y28450D01*
X354900Y15000D02*
Y25850D01*
X291202Y122075D02*
Y122128D01*
Y208125D02*
X293715Y210638D01*
X293500Y220000D02*
X293715Y219785D01*
X291202Y208072D02*
Y208125D01*
X293715Y210638D02*
Y219785D01*
X339500Y263750D02*
X504500D01*
X300000Y224250D02*
X339500Y263750D01*
X300000Y211213D02*
Y224250D01*
X296859Y202415D02*
X303750Y209306D01*
X341000Y260000D02*
X510250D01*
X303750Y222750D02*
X341000Y260000D01*
X303750Y209306D02*
Y222750D01*
X294031Y205243D02*
X300000Y211213D01*
X337000Y266265D02*
Y270000D01*
X313500Y253000D02*
X323735D01*
X337000Y266265D01*
Y270000D02*
X341000Y274000D01*
X418500D01*
X276285Y215785D02*
X313500Y253000D01*
X371111Y143250D02*
Y144264D01*
X364566Y106566D02*
X365087D01*
X520000Y269750D02*
Y292250D01*
X510250Y260000D02*
X520000Y269750D01*
X504500Y263750D02*
X508250Y267500D01*
X324750Y274500D02*
X325250D01*
X330750Y280000D01*
X266250Y209306D02*
Y244000D01*
X308750Y286500D01*
X371250D01*
X271750Y221000D02*
X310750Y260000D01*
X330750Y280000D02*
X392500D01*
X271750Y209516D02*
Y221000D01*
X276285Y210585D02*
Y215785D01*
Y210585D02*
X278798Y208072D01*
X371250Y286500D02*
X380300Y295550D01*
X349000Y290750D02*
X354900Y296650D01*
X303250Y290750D02*
X349000D01*
X262250Y249750D02*
X303250Y290750D01*
X262250Y207649D02*
Y249750D01*
Y207649D02*
X270312Y199587D01*
X234500Y212772D02*
Y256500D01*
X278700Y300700D02*
Y315200D01*
X234500Y256500D02*
X278700Y300700D01*
X225500Y210405D02*
Y265500D01*
X227900Y267900D02*
Y315200D01*
X225500Y265500D02*
X227900Y267900D01*
X230916Y210699D02*
Y261416D01*
X253300Y283800D02*
Y315200D01*
X230916Y261416D02*
X253300Y283800D01*
X313883Y185445D02*
X320462Y192023D01*
X320915D01*
X313830Y185445D02*
X313883D01*
X104999Y257500D02*
X105249Y257250D01*
X119750D01*
X291162Y122128D02*
X291202D01*
X310292Y176250D02*
X316658Y182616D01*
X558100Y276100D02*
Y286975D01*
X549500Y267500D02*
X558100Y276100D01*
X525500Y267500D02*
X549500D01*
X307022Y205522D02*
X307500Y206000D01*
X307022Y201317D02*
Y205522D01*
X308173Y191101D02*
X314420Y197348D01*
Y198312D01*
X314898Y198790D01*
X302516Y196811D02*
X307022Y201317D01*
X234500Y212772D02*
X258999Y188273D01*
X230916Y210699D02*
X256170Y185445D01*
X225500Y210405D02*
X253289Y182616D01*
X253342D01*
X337120Y148250D02*
X337870Y149000D01*
X332963Y148250D02*
X337120D01*
X327972Y158898D02*
X337870Y149000D01*
X325144Y156069D02*
X332963Y148250D01*
X331806Y143750D02*
X342115D01*
X344930Y140935D01*
X350371D01*
X322315Y153241D02*
X331806Y143750D01*
X350371Y140935D02*
X356936Y147500D01*
X325144Y174131D02*
X330250Y179237D01*
X325144Y174131D02*
Y174131D01*
X330250Y179237D02*
Y184894D01*
Y191000D01*
X322315Y176959D02*
X330250Y184894D01*
X302516Y196758D02*
Y196811D01*
X293250Y193750D02*
X293798D01*
X299634Y199587D02*
X299688D01*
X293798Y193750D02*
X299634Y199587D01*
X266250Y209306D02*
X273141Y202415D01*
X258835Y199750D02*
X264655Y193930D01*
X258750Y199750D02*
X258835D01*
X271750Y209516D02*
X275969Y205297D01*
X299688Y130613D02*
X306500Y123801D01*
Y120250D02*
Y123801D01*
X368250Y140389D02*
X371111Y143250D01*
X368250Y136186D02*
Y140389D01*
X361685Y129621D02*
Y129621D01*
X368250Y136186D01*
X361139Y147500D02*
X364500Y150861D01*
X356936Y147500D02*
X361139D01*
X364500Y150861D02*
X364889D01*
X345815Y114065D02*
X346129D01*
X339750Y108000D02*
X345815Y114065D01*
X335250Y108000D02*
X339750D01*
X331889Y104639D02*
X335250Y108000D01*
X331361Y104639D02*
X331889D01*
X328750Y118750D02*
X334815Y124815D01*
Y125379D01*
X328750Y114473D02*
Y118750D01*
X325139Y110861D02*
Y110861D01*
X328750Y114473D01*
X299188Y188250D02*
X299611D01*
X305291Y193930D02*
X305345D01*
X299611Y188250D02*
X305291Y193930D01*
X304750Y182250D02*
X304925D01*
X310948Y188273D02*
X311001D01*
X304925Y182250D02*
X310948Y188273D01*
X305291Y136270D02*
X305345D01*
X314718Y129532D02*
X320750Y123500D01*
X308173Y139099D02*
X314718Y132554D01*
Y129532D02*
Y132554D01*
X302516Y133442D02*
X313958Y122000D01*
X336563Y139687D02*
X352000Y124250D01*
Y122593D02*
Y124250D01*
X346129Y116722D02*
X352000Y122593D01*
X346129Y114065D02*
Y116722D01*
X330212Y139687D02*
X336563D01*
X273000Y59750D02*
Y116330D01*
X278798Y122128D01*
X329500Y15000D02*
Y26500D01*
X268000Y57500D02*
Y116987D01*
X275969Y124957D01*
X303880Y15220D02*
X304100Y15000D01*
X303880Y15220D02*
Y25620D01*
X296000Y33500D02*
X303880Y25620D01*
X285250Y33500D02*
X296000D01*
X263500Y55250D02*
X285250Y33500D01*
X263500Y55250D02*
Y118144D01*
X273141Y127785D01*
X258000Y51750D02*
X278700Y31050D01*
Y15000D02*
Y31050D01*
X275969Y205243D02*
Y205297D01*
X354900Y296650D02*
Y315200D01*
X380300Y295550D02*
Y315200D01*
X405700Y293200D02*
Y315200D01*
X392500Y280000D02*
X405700Y293200D01*
X418500Y274000D02*
X431100Y286600D01*
Y315200D01*
X319487Y150412D02*
X330212Y139687D01*
D17*
X202250Y117800D02*
D03*
Y105100D02*
D03*
Y92400D02*
D03*
Y79700D02*
D03*
X130250D02*
D03*
Y92400D02*
D03*
Y105100D02*
D03*
Y117800D02*
D03*
D18*
X321111Y94139D02*
D03*
X314889Y100361D02*
D03*
X375500Y191500D02*
D03*
X369277Y197723D02*
D03*
X352677Y180223D02*
D03*
X358900Y174000D02*
D03*
X373139Y160861D02*
D03*
X379361Y154639D02*
D03*
X381489Y169611D02*
D03*
X387711Y163389D02*
D03*
X344777Y203723D02*
D03*
X351000Y197500D02*
D03*
X337528Y230223D02*
D03*
X343750Y224000D02*
D03*
X371111Y144639D02*
D03*
X364889Y150861D02*
D03*
X325139Y110861D02*
D03*
X331361Y104639D02*
D03*
X227111Y150889D02*
D03*
X220889Y157111D02*
D03*
X218361Y142389D02*
D03*
X212139Y148611D02*
D03*
X251861Y206639D02*
D03*
X245639Y212861D02*
D03*
D19*
X364566Y106566D02*
D03*
X356434Y98434D02*
D03*
D20*
X68550Y167600D02*
D03*
Y187600D02*
D03*
Y182600D02*
D03*
Y177600D02*
D03*
Y172600D02*
D03*
Y162600D02*
D03*
Y157600D02*
D03*
Y152600D02*
D03*
Y147600D02*
D03*
Y142600D02*
D03*
X81550Y160100D02*
D03*
Y135100D02*
D03*
Y140100D02*
D03*
Y145100D02*
D03*
Y150100D02*
D03*
Y155100D02*
D03*
Y195100D02*
D03*
Y170100D02*
D03*
Y175100D02*
D03*
Y180100D02*
D03*
Y185100D02*
D03*
Y190100D02*
D03*
D21*
X68550Y196100D02*
D03*
X68450Y134100D02*
D03*
D22*
X49400Y95200D02*
D03*
X40600D02*
D03*
Y235000D02*
D03*
X49400D02*
D03*
D23*
X172000Y59500D02*
D03*
X160500D02*
D03*
X90750Y95200D02*
D03*
X79250D02*
D03*
X90750Y235000D02*
D03*
X79250D02*
D03*
D24*
X158750Y42000D02*
D03*
X173750D02*
D03*
D25*
X334750Y212222D02*
D03*
X328527Y206000D02*
D03*
X325750Y220972D02*
D03*
X319527Y214750D02*
D03*
D26*
X353777Y213972D02*
D03*
X360000Y207750D02*
D03*
D27*
X134250Y195500D02*
D03*
X150250D02*
D03*
X199750D02*
D03*
X183750D02*
D03*
X151250Y288500D02*
D03*
X135250D02*
D03*
X185750D02*
D03*
X201750D02*
D03*
X152000Y140000D02*
D03*
X168000D02*
D03*
D28*
X346129Y114065D02*
D03*
X334815Y125379D02*
D03*
X361685Y129621D02*
D03*
X350371Y140935D02*
D03*
D29*
X327972Y158898D02*
D03*
X325144Y156069D02*
D03*
X322315Y153241D02*
D03*
X319487Y150412D02*
D03*
X316658Y147584D02*
D03*
X313830Y144755D02*
D03*
X311001Y141927D02*
D03*
X308173Y139099D02*
D03*
X305345Y136270D02*
D03*
X302516Y133442D02*
D03*
X299688Y130613D02*
D03*
X296859Y127785D02*
D03*
X294031Y124957D02*
D03*
X291202Y122128D02*
D03*
X242028Y171302D02*
D03*
X244856Y174131D02*
D03*
X247685Y176959D02*
D03*
X250513Y179788D02*
D03*
X253342Y182616D02*
D03*
X256170Y185445D02*
D03*
X258999Y188273D02*
D03*
X261827Y191101D02*
D03*
X264655Y193930D02*
D03*
X267484Y196758D02*
D03*
X270312Y199587D02*
D03*
X273141Y202415D02*
D03*
X275969Y205243D02*
D03*
X278798Y208072D02*
D03*
D30*
Y122128D02*
D03*
X275969Y124957D02*
D03*
X273141Y127785D02*
D03*
X270312Y130613D02*
D03*
X267484Y133442D02*
D03*
X264655Y136270D02*
D03*
X261827Y139099D02*
D03*
X258999Y141927D02*
D03*
X256170Y144755D02*
D03*
X253342Y147584D02*
D03*
X250513Y150412D02*
D03*
X247685Y153241D02*
D03*
X244856Y156069D02*
D03*
X242028Y158898D02*
D03*
X291202Y208072D02*
D03*
X294031Y205243D02*
D03*
X296859Y202415D02*
D03*
X299688Y199587D02*
D03*
X302516Y196758D02*
D03*
X305345Y193930D02*
D03*
X308173Y191101D02*
D03*
X311001Y188273D02*
D03*
X313830Y185445D02*
D03*
X316658Y182616D02*
D03*
X319487Y179788D02*
D03*
X322315Y176959D02*
D03*
X325144Y174131D02*
D03*
D31*
X327972Y171302D02*
D03*
D32*
X25000Y302500D02*
D03*
X104999Y257500D02*
D03*
X25000D02*
D03*
X105000Y302500D02*
D03*
Y27700D02*
D03*
X25001Y72700D02*
D03*
X105000D02*
D03*
X25000Y27700D02*
D03*
D33*
X132800Y242000D02*
D03*
D34*
X199700Y264900D02*
D03*
Y242000D02*
D03*
Y219100D02*
D03*
D35*
X160000Y169500D02*
D03*
Y160700D02*
D03*
X175000Y169500D02*
D03*
Y160700D02*
D03*
X145000Y160700D02*
D03*
Y169500D02*
D03*
D36*
X122550Y174600D02*
D03*
Y165100D02*
D03*
Y155600D02*
D03*
X97450D02*
D03*
Y165100D02*
D03*
Y174600D02*
D03*
D37*
X95000Y190000D02*
D03*
X105000D02*
D03*
X95000Y140000D02*
D03*
X105000D02*
D03*
D38*
X361034Y188867D02*
D03*
X367044Y182856D02*
D03*
D51*
X285000Y165100D02*
D03*
D66*
X408720Y214000D02*
G03*
X390580Y206486I0J-25654D01*
G01*
X469764D02*
G03*
X451624Y214000I-18140J-18140D01*
G01*
X503636Y172614D02*
G03*
X521776Y165100I18140J18140D01*
G01*
X367044Y182950D02*
X390580Y206486D01*
X408720Y214000D02*
X451624D01*
X469764Y206486D02*
X503636Y172614D01*
X521776Y165100D02*
X710000D01*
X367044Y182856D02*
Y182950D01*
X352677Y180366D02*
X361034Y188722D01*
Y188867D01*
X352677Y180223D02*
Y180366D01*
X348469Y176500D02*
X352191Y180223D01*
X327972Y171302D02*
X333170Y176500D01*
X348469D01*
X352191Y180223D02*
X352677D01*
D67*
X238750Y47750D02*
X247000Y56000D01*
Y83750D01*
X148500Y79700D02*
X148500Y79700D01*
X130250Y79700D02*
X148500D01*
X202250Y117800D02*
Y126278D01*
X218361Y142389D01*
X218486D02*
X226986Y150889D01*
X227111D01*
X218361Y142389D02*
X218486D01*
X102900Y95100D02*
X103000Y95000D01*
X90850Y95100D02*
X102900D01*
X90750Y95200D02*
X90850Y95100D01*
X416250Y52250D02*
X424250Y44250D01*
X479500D01*
X512000Y44750D02*
X667000D01*
X684630Y27120D01*
X73400Y152600D02*
X75900Y150100D01*
X81550D01*
X68550Y152600D02*
X73400D01*
X61600D02*
X67900D01*
X48000Y149250D02*
X58250D01*
X61600Y152600D01*
X77992Y180100D02*
X81550D01*
X48100Y177600D02*
X75492D01*
X77992Y180100D01*
X172125Y59625D02*
X186375D01*
X172000Y59500D02*
X172125Y59625D01*
X186375D02*
X186500Y59750D01*
X97450Y165100D02*
X97691Y164859D01*
X109541Y157209D02*
Y161459D01*
X97691Y164859D02*
X106141D01*
X109541Y161459D01*
Y157209D02*
X110250Y156500D01*
X106750Y220500D02*
X111500Y215750D01*
X113400Y165100D02*
X122550D01*
X134350D01*
X111500Y167000D02*
Y215750D01*
Y167000D02*
X113400Y165100D01*
X119062Y195500D02*
X134250D01*
X150103Y141897D02*
Y149743D01*
X145000Y154846D02*
Y160700D01*
X150103Y141897D02*
X152000Y140000D01*
X145000Y154846D02*
X150103Y149743D01*
X136000Y140000D02*
X152000D01*
X348993Y69250D02*
X380250Y100507D01*
Y101500D01*
X343250Y52250D02*
X416250D01*
X321111Y94014D02*
Y94139D01*
Y94014D02*
X330250Y84875D01*
Y84750D02*
Y84875D01*
X351750Y166750D02*
Y166800D01*
X358900Y173950D02*
Y174000D01*
X351750Y166800D02*
X358900Y173950D01*
X349389Y229250D02*
X354000D01*
X364250Y219000D01*
X344140Y224000D02*
X349389Y229250D01*
X343750Y224000D02*
X344140D01*
X371520Y227250D02*
X397270Y253000D01*
X684000D01*
X360730Y238000D02*
X371500Y227230D01*
Y227250D02*
X371520D01*
X345305Y238000D02*
X360730D01*
X319653Y214750D02*
X328402Y206000D01*
X319527Y214750D02*
X319653D01*
X328402Y206000D02*
X328527D01*
X312639Y221500D02*
X319389Y214750D01*
X319527D01*
X312500Y221500D02*
X312639D01*
X390189Y178000D02*
X390500D01*
X381489Y169611D02*
X381800D01*
X390189Y178000D01*
X376000Y204722D02*
Y205000D01*
X369277Y197723D02*
Y198000D01*
X376000Y204722D01*
X378000Y137000D02*
Y137375D01*
X371111Y144264D02*
Y144639D01*
Y144264D02*
X378000Y137375D01*
X387711Y163339D02*
X397000Y154050D01*
Y154000D02*
Y154050D01*
X387711Y163339D02*
Y163389D01*
X387000Y147000D02*
X387000D01*
X379361Y154639D02*
X387000Y147000D01*
X351000Y197250D02*
Y197500D01*
X343000Y189250D02*
X351000Y197250D01*
X343000Y189000D02*
Y189250D01*
X240000Y224000D02*
X243000Y227000D01*
X240000Y218500D02*
Y224000D01*
Y218500D02*
X245639Y212861D01*
X212139Y148611D02*
Y149236D01*
X206000Y155375D02*
X212139Y149236D01*
X206000Y155375D02*
Y156000D01*
X220889Y157111D02*
X220889D01*
X214000Y164000D02*
X220889Y157111D01*
X185875Y141625D02*
Y155875D01*
X220000Y190000D01*
Y255500D01*
X199700Y219100D02*
X213000D01*
X199750Y195500D02*
X213000D01*
X210600Y264900D02*
X220000Y255500D01*
X175000Y169500D02*
Y180418D01*
X95000Y203000D02*
X95243Y202757D01*
X103243D01*
X105000Y201000D01*
Y190000D02*
Y201000D01*
Y140000D02*
X116000D01*
X173750Y42000D02*
X186500D01*
X201750Y288500D02*
X202500Y289250D01*
Y315200D01*
X64550Y195100D02*
X76550D01*
X63550Y196100D02*
X64550Y195100D01*
X64450Y135100D02*
X76550D01*
X63450Y134100D02*
X64450Y135100D01*
X65450Y128900D02*
Y132100D01*
X65919Y125596D02*
X69615Y121900D01*
X63450Y134100D02*
X65450Y132100D01*
Y128900D02*
X65919Y128431D01*
Y125596D02*
Y128431D01*
X69615Y121900D02*
X72450D01*
X65550Y198100D02*
Y204235D01*
X69615Y208300D02*
X72450D01*
X63550Y196100D02*
X65550Y198100D01*
Y204235D02*
X69615Y208300D01*
X28000Y95200D02*
X40600D01*
X105000Y27700D02*
X121000D01*
X10000D02*
X25000D01*
X28000Y235000D02*
X40600D01*
X10000Y302500D02*
X25000D01*
X105000D02*
X121000D01*
X135250Y288500D02*
X135250Y288500D01*
Y302500D01*
X684630Y15470D02*
Y27120D01*
Y15470D02*
X685100Y15000D01*
X184250Y140000D02*
X185875Y141625D01*
X90875Y234875D02*
X105625D01*
X105750Y234750D01*
X90750Y235000D02*
X90875Y234875D01*
X685100Y303757D02*
Y315200D01*
X683343Y302000D02*
X685100Y303757D01*
X509250Y302000D02*
X683343D01*
X507300Y300050D02*
X509250Y302000D01*
X507300Y286975D02*
Y300050D01*
X337528Y230223D02*
X345305Y238000D01*
X310250Y277000D02*
X310750D01*
X324731Y263019D01*
X325231D01*
X257000Y213000D02*
Y224750D01*
X253000Y228750D02*
X257000Y224750D01*
X253000Y228750D02*
Y264250D01*
X251861Y207861D02*
X257000Y213000D01*
X251861Y206639D02*
Y207861D01*
X353777Y213972D02*
X354250D01*
X685100Y315200D02*
X710500D01*
X684000Y253000D02*
X710500Y279500D01*
Y315200D01*
X328500Y69250D02*
X348993D01*
X305750Y92000D02*
X328500Y69250D01*
X306139Y92000D02*
X314500Y100361D01*
X305750Y92000D02*
X306139D01*
X314500Y100361D02*
X314889D01*
X183750Y183500D02*
X191500Y175750D01*
X183750Y183500D02*
Y195500D01*
X199700Y264900D02*
X210600D01*
X168000Y140000D02*
X184250D01*
X151250Y288500D02*
X185750D01*
Y267750D02*
Y288500D01*
Y267750D02*
X188600Y264900D01*
X199700D01*
X183750Y237750D02*
X188000Y242000D01*
X183750Y195500D02*
Y237750D01*
X188000Y242000D02*
X199700D01*
X150250Y195500D02*
X183750D01*
X105000Y72700D02*
X105050Y72750D01*
X119250D01*
X158750Y58000D02*
X160250Y59500D01*
X160500D01*
X158750Y42000D02*
Y58000D01*
X345989Y157120D02*
X355369D01*
X337870Y149000D02*
X345989Y157120D01*
X355369D02*
X363750Y165500D01*
X373139Y161061D02*
X381489Y169411D01*
Y169611D01*
X373139Y160861D02*
Y161061D01*
X363750Y165500D02*
X367171D01*
X371810Y160861D01*
X373139D01*
X349426Y206250D02*
X357086D01*
X342972Y203723D02*
X346899D01*
X349426Y206250D01*
X357086D02*
X358586Y207750D01*
X360000D01*
X330250Y191000D02*
X342972Y203723D01*
X251861Y206639D02*
X258750Y199750D01*
X311000Y104594D02*
X315030Y100564D01*
X311000Y104594D02*
Y115750D01*
X306500Y120250D02*
X311000Y115750D01*
X326016Y220831D02*
X328136D01*
X326016D02*
X334625Y212222D01*
X325875Y220972D02*
X326016Y220831D01*
X334625Y212222D02*
X334750D01*
X325750Y220972D02*
X325875D01*
X328136Y220831D02*
X337528Y230223D01*
X338551Y213619D02*
X353424D01*
X337013Y212081D02*
X338551Y213619D01*
X334750Y212222D02*
X334891Y212081D01*
X353424Y213619D02*
X353777Y213972D01*
X334891Y212081D02*
X337013D01*
X49400Y95200D02*
X79250D01*
X85300Y72700D02*
X105000D01*
X79250Y78750D02*
X85300Y72700D01*
X79250Y78750D02*
Y95200D01*
X43700Y72700D02*
X49400Y78400D01*
Y95200D01*
X25001Y72700D02*
X43700D01*
X43750Y257500D02*
X49400Y251850D01*
X25000Y257500D02*
X43750D01*
X49400Y235000D02*
Y251850D01*
Y235000D02*
X79250D01*
X81500Y257500D02*
X104999D01*
X79250Y255250D02*
X81500Y257500D01*
X79250Y235000D02*
Y255250D01*
X173000Y145000D02*
Y151200D01*
X175000Y153200D01*
X168000Y140000D02*
X173000Y145000D01*
X175000Y153200D02*
Y160700D01*
X160000D02*
X175000D01*
X145000Y169500D02*
X145000Y169500D01*
X160000D01*
X138750Y169500D02*
X145000D01*
X134350Y165100D02*
X138750Y169500D01*
X51750Y220500D02*
X106750D01*
X45000Y213750D02*
X51750Y220500D01*
X45000Y174500D02*
Y213750D01*
Y174500D02*
X48100Y177600D01*
X45000Y152250D02*
Y174500D01*
Y152250D02*
X48000Y149250D01*
D68*
X81727Y170277D02*
X87527D01*
X95823Y172973D02*
X97450Y174600D01*
X87527Y170277D02*
X90223Y172973D01*
X95823D01*
X81550Y170100D02*
X81727Y170277D01*
X79550Y170100D02*
X81550D01*
X88247Y157003D02*
X96047D01*
X88052Y157198D02*
X88247Y157003D01*
X85420Y159923D02*
X87986Y157357D01*
X96047Y157003D02*
X97450Y155600D01*
X81727Y159923D02*
X85420D01*
X87986Y157357D02*
X88488D01*
X81550Y160100D02*
X81727Y159923D01*
X79373Y167923D02*
Y169923D01*
X68727Y162777D02*
X74227D01*
X79373Y167923D01*
Y169923D02*
X79550Y170100D01*
X68550Y162600D02*
X68727Y162777D01*
X60000Y167600D02*
X68550D01*
X250617Y179891D02*
X252892Y177616D01*
X251174Y173470D02*
X251174D01*
X259498Y176500D02*
X260000D01*
X247685Y176959D02*
X251174Y173470D01*
X251500Y167752D02*
X253635Y169886D01*
X252892Y177616D02*
X252892D01*
X253635Y169886D02*
Y171010D01*
X251174Y173470D02*
X253635Y171010D01*
X258225Y175226D02*
X259498Y176500D01*
X251500Y167250D02*
Y167752D01*
X255282Y175226D02*
X258225D01*
X252892Y177616D02*
X255282Y175226D01*
X122550Y155600D02*
X135750D01*
X122550Y174600D02*
X135750D01*
D69*
X710500Y315200D02*
D03*
X329500D02*
D03*
X354900D02*
D03*
X380300D02*
D03*
X405700D02*
D03*
X431100D02*
D03*
X456500D02*
D03*
X481900D02*
D03*
X507300D02*
D03*
X532700D02*
D03*
X558100D02*
D03*
X583500D02*
D03*
X608900D02*
D03*
X634300D02*
D03*
X659700D02*
D03*
X685100D02*
D03*
Y15000D02*
D03*
X659700D02*
D03*
X634300D02*
D03*
X608900D02*
D03*
X583500D02*
D03*
X558100D02*
D03*
X532700D02*
D03*
X507300D02*
D03*
X481900D02*
D03*
X456500D02*
D03*
X431100D02*
D03*
X405700D02*
D03*
X380300D02*
D03*
X354900D02*
D03*
X329500D02*
D03*
X710500D02*
D03*
X304100D02*
D03*
X278700D02*
D03*
X253300D02*
D03*
X227900D02*
D03*
X202500D02*
D03*
X177100D02*
D03*
X304100Y315200D02*
D03*
X278700D02*
D03*
X253300D02*
D03*
X227900D02*
D03*
X202500D02*
D03*
X177100D02*
D03*
X481900Y286975D02*
D03*
X558100D02*
D03*
X532700D02*
D03*
X507300D02*
D03*
D70*
X684600Y190500D02*
D03*
X735400D02*
D03*
X710000Y165100D02*
D03*
D71*
X684600Y139700D02*
D03*
X735400D02*
D03*
D72*
X23950Y208500D02*
D03*
Y122100D02*
D03*
D73*
X77450Y208300D02*
D03*
Y121900D02*
D03*
D74*
X143750Y66000D02*
D03*
X172250Y105500D02*
D03*
X255750Y155750D02*
D03*
X270000Y160000D02*
D03*
X117500Y117800D02*
D03*
X437802Y222738D02*
D03*
X428302D02*
D03*
X418802D02*
D03*
X409302D02*
D03*
X399885Y221483D02*
D03*
X391137Y217780D02*
D03*
X383658Y211922D02*
D03*
X394989Y198537D02*
D03*
X402646Y204161D02*
D03*
X412082Y205262D02*
D03*
X421582D02*
D03*
X431082D02*
D03*
X440582D02*
D03*
X450081D02*
D03*
X459388Y203356D02*
D03*
X466656Y197237D02*
D03*
X473373Y190519D02*
D03*
X480090Y183802D02*
D03*
X486808Y177084D02*
D03*
X493526Y170367D02*
D03*
X500460Y163874D02*
D03*
X508661Y159078D02*
D03*
X517851Y156673D02*
D03*
X527346Y156362D02*
D03*
X536846D02*
D03*
X546346D02*
D03*
X555846D02*
D03*
X565346D02*
D03*
X574846D02*
D03*
X584346D02*
D03*
X593846D02*
D03*
X603346D02*
D03*
X612846D02*
D03*
X622346D02*
D03*
X631846D02*
D03*
X641346D02*
D03*
X650846D02*
D03*
X660346D02*
D03*
X669846D02*
D03*
X679346D02*
D03*
X688846D02*
D03*
X696973Y151442D02*
D03*
X705278Y146830D02*
D03*
X714778Y146845D02*
D03*
X723069Y151483D02*
D03*
X728054Y159571D02*
D03*
X728474Y169062D02*
D03*
X724191Y177542D02*
D03*
X716323Y182865D02*
D03*
X706858Y183681D02*
D03*
X698196Y179780D02*
D03*
X690784Y173838D02*
D03*
X681284D02*
D03*
X671784D02*
D03*
X662284D02*
D03*
X652784D02*
D03*
X643284D02*
D03*
X633784D02*
D03*
X624284D02*
D03*
X614784D02*
D03*
X605284D02*
D03*
X595784D02*
D03*
X586284D02*
D03*
X576784D02*
D03*
X567284D02*
D03*
X557784D02*
D03*
X548284D02*
D03*
X538784D02*
D03*
X529284D02*
D03*
X519785Y173971D02*
D03*
X511048Y177700D02*
D03*
X504261Y184347D02*
D03*
X497543Y191064D02*
D03*
X490826Y197782D02*
D03*
X484108Y204499D02*
D03*
X477391Y211217D02*
D03*
X470059Y217258D02*
D03*
X461437Y221248D02*
D03*
X452046Y222682D02*
D03*
X88488Y157357D02*
D03*
X88750Y140000D02*
D03*
X275000Y155000D02*
D03*
X280000Y150000D02*
D03*
X285000Y145000D02*
D03*
X290000Y150000D02*
D03*
X285000Y155000D02*
D03*
X280000Y160000D02*
D03*
X275000Y165000D02*
D03*
X280000Y170000D02*
D03*
X285000Y165000D02*
D03*
X289693Y159828D02*
D03*
X295000Y155000D02*
D03*
X300000Y160000D02*
D03*
X295000Y165000D02*
D03*
X290000Y170000D02*
D03*
X285000Y175000D02*
D03*
X305000Y165000D02*
D03*
X300000Y170000D02*
D03*
X295000Y175000D02*
D03*
X290000Y180000D02*
D03*
X285000Y185000D02*
D03*
X280000Y180000D02*
D03*
X275000Y175000D02*
D03*
X270000Y170000D02*
D03*
X342750Y85000D02*
D03*
X316249Y109374D02*
D03*
X321178Y131750D02*
D03*
X267928Y185000D02*
D03*
X273750Y190750D02*
D03*
X316000Y169500D02*
D03*
X310500Y154000D02*
D03*
X290500Y134750D02*
D03*
X305000Y148000D02*
D03*
X299000Y142500D02*
D03*
X300750Y118000D02*
D03*
X293500Y220000D02*
D03*
X60000Y157600D02*
D03*
Y167600D02*
D03*
X520000Y292250D02*
D03*
X324750Y274500D02*
D03*
X310750Y260000D02*
D03*
X320915Y192023D02*
D03*
X119750Y257250D02*
D03*
X310292Y176250D02*
D03*
X119250Y72750D02*
D03*
X525500Y267500D02*
D03*
X508250D02*
D03*
X307500Y206000D02*
D03*
X314898Y198790D02*
D03*
X260000Y176500D02*
D03*
X251500Y167250D02*
D03*
X135750Y155600D02*
D03*
Y174600D02*
D03*
X293250Y193750D02*
D03*
X299188Y188250D02*
D03*
X304750Y182250D02*
D03*
X313958Y122000D02*
D03*
D75*
X247000Y83750D02*
D03*
X238750Y47750D02*
D03*
X103000Y95000D02*
D03*
X148500Y79700D02*
D03*
X479500Y44250D02*
D03*
X512000Y44750D02*
D03*
X110250Y156500D02*
D03*
X119098Y195918D02*
D03*
X339000Y95750D02*
D03*
X380250Y101500D02*
D03*
X343250Y52250D02*
D03*
X330250Y84750D02*
D03*
X351750Y166750D02*
D03*
X364250Y219000D02*
D03*
X371500Y227230D02*
D03*
X312500Y221500D02*
D03*
X376000Y205000D02*
D03*
X378000Y137000D02*
D03*
X387000Y147000D02*
D03*
X397000Y154000D02*
D03*
X343000Y189000D02*
D03*
X243000Y227000D02*
D03*
X206000Y156000D02*
D03*
X214000Y164000D02*
D03*
X213000Y219100D02*
D03*
Y195500D02*
D03*
X175000Y180418D02*
D03*
X95000Y203000D02*
D03*
X116000Y140000D02*
D03*
X136000D02*
D03*
X186500Y42000D02*
D03*
X28000Y95200D02*
D03*
X121000Y27700D02*
D03*
X10000D02*
D03*
X28000Y235000D02*
D03*
X10000Y302500D02*
D03*
X135250D02*
D03*
X121000D02*
D03*
X185875Y141625D02*
D03*
X105750Y234750D02*
D03*
X310250Y277000D02*
D03*
X325231Y263019D02*
D03*
X253000Y264250D02*
D03*
Y236250D02*
D03*
X186500Y59750D02*
D03*
X390500Y178000D02*
D03*
X305750Y92000D02*
D03*
X191500Y175750D02*
D03*
M02*
