M48
;Layer_Color=9474304
;FILE_FORMAT=4:4
METRIC,LZ
;TYPE=PLATED
T01F00S00C0.2000
T02F00S00C0.2500
T03F00S00C0.3500
T05F00S00C0.7620
T06F00S00C1.5400
%
T01
X0011925Y0007275
X0013675Y00095
Y00103
Y001105
X0013575Y001556
Y001746
X00088488Y00157357
X0008875Y0014
X0006Y001576
Y001676
X0011975Y0025725
X0031075Y0026
X0032475Y002745
X00314898Y0019879
X00320915Y00192023
X00299188Y0018825
X0029325Y0019375
X0029Y0018
X00295Y00175
Y00165
X0029Y0017
X0028
Y0016
X00289693Y00159828
X00285Y00155
X00275
X0028Y0015
X00285Y00145
X0029Y0015
X00295Y00155
X003Y0016
X00305Y00165
X003Y0017
X00316Y001695
X00310292Y0017625
X0030475Y0018225
X00285Y00185
Y00175
X0028Y0018
X00275Y00175
Y00165
X00285
X0027Y0016
Y0017
X0026Y001765
X00267928Y00185
X0027375Y0019075
X002515Y0016725
X002905Y0013475
X00299Y001425
X00305Y00148
X003105Y00154
X00321178Y0013175
X00313958Y00122
X00316249Y00109374
X0030075Y00118
X0034275Y00085
X0019575Y0009023
X00202459Y00103041
X0020375Y001125
X002935Y0022
X003075Y00206
X00383658Y00211922
X00391137Y0021778
X00394989Y00198537
X00402646Y00204161
X00412082Y00205262
X00421582
X00431082
X00440582
X00450081
X00459388Y00203356
X00466656Y00197237
X00473373Y00190519
X0048009Y00183802
X00486808Y00177084
X00493526Y00170367
X0050046Y00163874
X00508661Y00159078
X00517851Y00156673
X00527346Y00156362
X00536846
X00546346
X00555846
X00565346
X00574846
X00584346
X00593846
X00603346
X00612846
X00622346
X00631846
X00641346
X00650846
X00660346
X00669846
X00679346
X00688846
X00696973Y00151442
X00705278Y0014683
X00714778Y00146845
X00723069Y00151483
X00728054Y00159571
X00728474Y00169062
X00724191Y00177542
X00716323Y00182865
X00706858Y00183681
X00698196Y0017978
X00690784Y00173838
X00681284
X00671784
X00662284
X00652784
X00643284
X00633784
X00624284
X00614784
X00605284
X00595784
X00586284
X00576784
X00567284
X00557784
X00548284
X00538784
X00529284
X00519785Y00173971
X00511048Y001777
X00504261Y00184347
X00497543Y00191064
X00490826Y00197782
X00484108Y00204499
X00477391Y00211217
X00470059Y00217258
X00461437Y00221248
X00452046Y00222682
X00437802Y00222738
X00428302
X00418802
X00409302
X00399885Y00221483
X0050825Y002675
X005255
X0052Y0029225
T02
X00166Y001
X00158Y0011
X00175
T03
X0001Y000277
X00028Y000952
X00106Y000955
X00135Y00082
X00136Y0014
X00116
X0011025Y001565
X00119098Y00195918
X00095Y00203
X0010575Y0023475
X00028Y00235
X0001Y003025
X00121
X0013525
X00253Y0026425
Y0023625
X00243Y00227
X00213Y002191
Y001955
X00214Y00164
X00206Y00156
X001915Y0017575
X00175Y00180418
X00185875Y00141625
X001865Y0005975
Y00042
X0023875Y0004775
Y0009875
X0030575Y00092
X0033025Y0008475
X00339Y0009575
X0038025Y001015
X00378Y00137
X00387Y00147
X003905Y00178
X00376Y00205
X0036425Y00219
X003715Y0022723
X003125Y002215
X00325231Y00263019
X0031025Y00277
X00343Y00189
X0035175Y0016675
X0034325Y0005225
X00121Y000277
X00487207Y00035165
X00512597Y00035046
X00397Y00154
T05
X001771Y00015
X002025
X002279
X002533
X002787
X003041
X003295
X003549
X003803
Y003152
X003549
X003295
X003041
X002787
X002533
X002279
X002025
X001771
X004057
X004311
X004565
X004819
X005073
X005327
X005581
X005835
X006089
X006343
X006597
X006851
X007105
X005581Y00286975
X005327
X005073
X004819
Y00015
X004565
X004311
X004057
X005073
X005327
X005581
X005835
X006089
X006343
X006597
X006851
X007105
T06
X006846Y001397
X0071Y001651
X007354Y001905
Y001397
X006846Y001905
M30
